<svg width="25" height="25" viewBox="0 0 25 25" fill="none" xmlns="http://www.w3.org/2000/svg">
<circle cx="12.5" cy="6.25" r="5.25" stroke="black" stroke-width="2"/>
<path d="M1.05773 24H1.04288C1.54963 18.117 6.48564 13.5 12.5 13.5C18.5144 13.5 23.4504 18.117 23.9571 24H23.9423H23.9269H23.9114H23.8958H23.8801H23.8643H23.8484H23.8324H23.8163H23.8001H23.7838H23.7674H23.7509H23.7342H23.7175H23.7007H23.6838H23.6668H23.6497H23.6325H23.6152H23.5978H23.5803H23.5627H23.545H23.5272H23.5093H23.4913H23.4732H23.455H23.4368H23.4184H23.3999H23.3813H23.3627H23.3439H23.325H23.3061H23.287H23.2679H23.2486H23.2293H23.2099H23.1903H23.1707H23.151H23.1312H23.1113H23.0913H23.0712H23.051H23.0307H23.0104H22.9899H22.9693H22.9487H22.928H22.9071H22.8862H22.8652H22.8441H22.8229H22.8016H22.7802H22.7588H22.7372H22.7156H22.6938H22.672H22.6501H22.6281H22.606H22.5838H22.5615H22.5391H22.5167H22.4942H22.4715H22.4488H22.426H22.4031H22.3801H22.3571H22.3339H22.3107H22.2874H22.264H22.2405H22.2169H22.1932H22.1694H22.1456H22.1217H22.0977H22.0736H22.0494H22.0251H22.0008H21.9764H21.9518H21.9272H21.9026H21.8778H21.8529H21.828H21.803H21.7779H21.7527H21.7275H21.7021H21.6767H21.6512H21.6256H21.5999H21.5742H21.5484H21.5224H21.4965H21.4704H21.4442H21.418H21.3917H21.3653H21.3388H21.3123H21.2857H21.259H21.2322H21.2053H21.1784H21.1514H21.1243H21.0971H21.0698H21.0425H21.0151H20.9876H20.9601H20.9324H20.9047H20.8769H20.8491H20.8211H20.7931H20.765H20.7369H20.7086H20.6803H20.6519H20.6235H20.5949H20.5663H20.5376H20.5089H20.4801H20.4512H20.4222H20.3931H20.364H20.3348H20.3056H20.2762H20.2468H20.2173H20.1878H20.1582H20.1285H20.0987H20.0689H20.039H20.009H19.9789H19.9488H19.9186H19.8884H19.8581H19.8277H19.7972H19.7667H19.7361H19.7054H19.6747H19.6439H19.613H19.5821H19.5511H19.52H19.4889H19.4577H19.4264H19.3951H19.3636H19.3322H19.3006H19.269H19.2374H19.2056H19.1738H19.142H19.1101H19.0781H19.046H19.0139H18.9817H18.9495H18.9171H18.8848H18.8523H18.8198H18.7873H18.7546H18.722H18.6892H18.6564H18.6235H18.5906H18.5576H18.5245H18.4914H18.4582H18.425H18.3917H18.3583H18.3249H18.2914H18.2579H18.2243H18.1906H18.1569H18.1231H18.0893H18.0554H18.0215H17.9875H17.9534H17.9193H17.8851H17.8508H17.8165H17.7822H17.7478H17.7133H17.6788H17.6442H17.6096H17.5749H17.5401H17.5053H17.4705H17.4356H17.4006H17.3656H17.3305H17.2954H17.2602H17.2249H17.1896H17.1543H17.1189H17.0834H17.0479H17.0124H16.9768H16.9411H16.9054H16.8696H16.8338H16.7979H16.762H16.726H16.69H16.6539H16.6178H16.5816H16.5454H16.5091H16.4728H16.4364H16.4H16.3635H16.327H16.2904H16.2538H16.2171H16.1804H16.1436H16.1068H16.07H16.033H15.9961H15.9591H15.922H15.8849H15.8478H15.8106H15.7734H15.7361H15.6987H15.6614H15.6239H15.5865H15.549H15.5114H15.4738H15.4362H15.3985H15.3607H15.323H15.2851H15.2473H15.2094H15.1714H15.1334H15.0954H15.0573H15.0192H14.981H14.9428H14.9046H14.8663H14.8279H14.7896H14.7512H14.7127H14.6742H14.6357H14.5971H14.5585H14.5198H14.4811H14.4424H14.4036H14.3648H14.326H14.2871H14.2481H14.2092H14.1702H14.1311H14.092H14.0529H14.0138H13.9746H13.9353H13.8961H13.8568H13.8174H13.7781H13.7386H13.6992H13.6597H13.6202H13.5806H13.541H13.5014H13.4618H13.4221H13.3823H13.3426H13.3028H13.2629H13.2231H13.1832H13.1432H13.1033H13.0633H13.0233H12.9832H12.9431H12.903H12.8628H12.8226H12.7824H12.7422H12.7019H12.6616H12.6212H12.5808H12.5404H12.5H12.4596H12.4192H12.3788H12.3384H12.2981H12.2578H12.2176H12.1774H12.1372H12.097H12.0569H12.0168H11.9767H11.9367H11.8967H11.8568H11.8168H11.7769H11.7371H11.6972H11.6574H11.6177H11.5779H11.5382H11.4986H11.459H11.4194H11.3798H11.3403H11.3008H11.2614H11.2219H11.1826H11.1432H11.1039H11.0647H11.0254H10.9862H10.9471H10.908H10.8689H10.8298H10.7908H10.7519H10.7129H10.674H10.6352H10.5964H10.5576H10.5189H10.4802H10.4415H10.4029H10.3643H10.3258H10.2873H10.2488H10.2104H10.1721H10.1337H10.0954H10.0572H10.019H9.98081H9.94269H9.90461H9.86658H9.82858H9.79063H9.75272H9.71486H9.67704H9.63926H9.60152H9.56383H9.52619H9.48859H9.45103H9.41352H9.37605H9.33863H9.30126H9.26393H9.22665H9.18941H9.15222H9.11507H9.07797H9.04092H9.00391H8.96696H8.93005H8.89318H8.85637H8.8196H8.78288H8.74621H8.70959H8.67302H8.63649H8.60002H8.56359H8.52721H8.49089H8.45461H8.41838H8.38221H8.34608H8.31H8.27398H8.238H8.20208H8.16621H8.13039H8.09462H8.05891H8.02324H7.98763H7.95207H7.91656H7.88111H7.84571H7.81036H7.77507H7.73983H7.70465H7.66951H7.63444H7.59941H7.56444H7.52953H7.49467H7.45987H7.42512H7.39043H7.35579H7.32121H7.28669H7.25222H7.21781H7.18345H7.14916H7.11492H7.08073H7.04661H7.01254H6.97853H6.94458H6.91068H6.87685H6.84307H6.80936H6.7757H6.7421H6.70856H6.67508H6.64166H6.6083H6.575H6.54176H6.50858H6.47546H6.4424H6.40941H6.37647H6.3436H6.31079H6.27804H6.24535H6.21273H6.18016H6.14766H6.11523H6.08285H6.05054H6.0183H5.98611H5.95399H5.92194H5.88995H5.85802H5.82616H5.79436H5.76263H5.73096H5.69936H5.66782H5.63635H5.60495H5.57361H5.54234H5.51113H5.47999H5.44892H5.41792H5.38698H5.35611H5.32531H5.29457H5.26391H5.23331H5.20278H5.17232H5.14193H5.1116H5.08135H5.05117H5.02105H4.99101H4.96103H4.93113H4.90129H4.87153H4.84184H4.81221H4.78266H4.75318H4.72377H4.69444H4.66517H4.63598H4.60686H4.57781H4.54884H4.51994H4.49111H4.46235H4.43367H4.40506H4.37653H4.34807H4.31968H4.29137H4.26313H4.23497H4.20688H4.17887H4.15093H4.12307H4.09528H4.06757H4.03994H4.01238H3.9849H3.9575H3.93017H3.90292H3.87574H3.84865H3.82163H3.79469H3.76783H3.74105H3.71434H3.68771H3.66117H3.6347H3.60831H3.582H3.55577H3.52961H3.50354H3.47755H3.45164H3.42581H3.40006H3.37439H3.34881H3.3233H3.29788H3.27253H3.24727H3.22209H3.197H3.17198H3.14705H3.1222H3.09744H3.07276H3.04816H3.02364H2.99921H2.97486H2.9506H2.92642H2.90233H2.87832H2.85439H2.83055H2.8068H2.78313H2.75955H2.73605H2.71264H2.68931H2.66608H2.64292H2.61986H2.59688H2.57399H2.55119H2.52847H2.50585H2.48331H2.46086H2.43849H2.41622H2.39403H2.37194H2.34993H2.32801H2.30618H2.28445H2.2628H2.24124H2.21977H2.19839H2.1771H2.15591H2.1348H2.11379H2.09287H2.07204H2.0513H2.03065H2.0101H1.98963H1.96927H1.94899H1.9288H1.90871H1.88872H1.86881H1.849H1.82929H1.80967H1.79014H1.77071H1.75137H1.73213H1.71298H1.69393H1.67497H1.65611H1.63734H1.61867H1.6001H1.58162H1.56324H1.54496H1.52677H1.50868H1.49069H1.4728H1.455H1.4373H1.4197H1.4022H1.3848H1.36749H1.35029H1.33318H1.31617H1.29927H1.28246H1.26575H1.24914H1.23264H1.21623H1.19992H1.18372H1.16761H1.15161H1.13571H1.11991H1.10421H1.08861H1.07312H1.05773Z" stroke="black" stroke-width="2"/>
</svg>
